<?xml version="1.0" standalone="no"?>
<!DOCTYPE svg PUBLIC "-//W3C//DTD SVG 20010904//EN"
 "http://www.w3.org/TR/2001/REC-SVG-20010904/DTD/svg10.dtd">
<svg version="1.0" xmlns="http://www.w3.org/2000/svg"
 width="300.000000pt" height="200.000000pt" viewBox="0 0 300.000000 200.000000"
 preserveAspectRatio="xMidYMid meet">
<metadata>
Created by potrace 1.10, written by Peter Selinger 2001-2011
</metadata>
<g transform="translate(0.000000,200.000000) scale(0.100000,-0.100000)"
fill="#000000" stroke="none">
<path d="M499 1311 l-29 -29 0 -237 0 -237 29 -29 c28 -28 33 -29 124 -29 l95
0 7 105 7 105 -31 29 c-31 29 -32 32 -29 108 4 93 21 100 28 11 4 -49 9 -64
23 -66 15 -3 17 5 17 62 0 51 3 66 15 66 10 0 15 -16 17 -62 3 -55 5 -63 23
-63 18 0 20 8 23 63 2 46 7 62 17 62 12 0 15 -16 15 -76 0 -73 -1 -78 -33
-108 l-32 -31 5 -100 5 -100 98 -3 c97 -3 98 -2 127 27 l30 29 0 155 c0 136
-2 156 -18 170 -10 10 -31 17 -46 17 -32 0 -76 40 -76 70 0 12 -9 33 -20 47
-11 14 -20 36 -20 49 l0 24 -171 0 -171 0 -29 -29z m361 -57 c14 -27 30 -61
35 -75 9 -21 28 -34 105 -69 12 -6 16 -32 18 -126 4 -150 -1 -178 -34 -192
-33 -16 -137 -15 -152 0 -7 7 -12 41 -12 83 0 59 4 75 20 90 28 25 41 74 37
138 -5 81 -11 85 -119 83 -88 -1 -93 -3 -105 -26 -16 -31 -17 -124 -2 -153 6
-12 21 -32 32 -44 17 -20 19 -31 14 -94 -3 -40 -10 -76 -16 -82 -5 -5 -41 -8
-80 -5 -103 5 -100 -2 -100 263 0 224 3 243 39 258 8 3 78 5 155 4 l140 -2 25
-51z"/>
<path d="M1442 1198 c-26 -26 1 -65 38 -53 16 5 20 14 18 33 -3 30 -35 41 -56
20z"/>
<path d="M1190 1058 l0 -138 75 0 c87 0 119 12 135 51 14 34 6 65 -22 80 l-20
11 21 19 c26 25 27 49 1 82 -18 23 -28 26 -105 29 l-85 3 0 -137z m141 76 c20
-24 -1 -48 -45 -52 -35 -3 -36 -2 -36 32 0 34 2 36 34 36 18 0 39 -7 47 -16z
m0 -104 c45 -25 8 -70 -57 -70 -21 0 -24 4 -24 40 0 38 2 40 31 40 17 0 39 -5
50 -10z"/>
<path d="M1880 1055 l0 -135 75 0 c47 0 87 6 104 15 46 23 52 93 11 115 -19
10 -19 11 0 30 27 27 25 62 -3 88 -20 19 -35 22 -105 22 l-82 0 0 -135z m134
89 c19 -7 21 -35 4 -52 -7 -7 -27 -12 -45 -12 -31 0 -33 2 -33 35 0 32 2 35
29 35 16 0 36 -3 45 -6z m7 -114 c45 -25 8 -70 -57 -70 -21 0 -24 4 -24 40 0
38 2 40 31 40 17 0 39 -5 50 -10z"/>
<path d="M1550 1145 c0 -16 -6 -25 -15 -25 -8 0 -15 -9 -15 -20 0 -11 7 -20
15 -20 12 0 15 -14 15 -68 0 -40 5 -73 12 -80 7 -7 32 -12 56 -12 36 0 43 3
38 16 -3 9 -6 20 -6 25 0 4 -7 6 -16 2 -23 -8 -34 14 -34 71 0 46 1 48 25 42
22 -6 25 -3 25 19 0 20 -5 25 -25 25 -20 0 -25 5 -25 25 0 20 -5 25 -25 25
-20 0 -25 -5 -25 -25z"/>
<path d="M1440 1020 l0 -100 28 0 28 0 -1 100 0 100 -27 0 -28 0 0 -100z"/>
<path d="M1693 1096 c-24 -21 -28 -32 -28 -74 0 -35 6 -56 19 -71 40 -44 148
-47 154 -4 3 19 -1 20 -42 16 -44 -5 -76 7 -76 28 0 5 29 9 65 9 l65 0 0 35
c0 78 -95 114 -157 61z m95 -28 c21 -21 13 -28 -28 -28 -43 0 -43 0 -34 24 7
19 45 21 62 4z"/>
<path d="M2155 1097 c-20 -16 -28 -35 -32 -68 -5 -41 -2 -50 24 -78 25 -29 35
-33 78 -33 43 0 53 5 77 31 63 70 18 171 -76 171 -32 0 -52 -6 -71 -23z m111
-43 c32 -49 -10 -109 -60 -86 -21 9 -26 19 -26 46 0 63 55 88 86 40z"/>
<path d="M2336 1108 c4 -7 20 -30 36 -50 l30 -38 -36 -43 c-20 -24 -36 -47
-36 -51 0 -3 13 -6 29 -6 23 0 34 7 48 30 9 17 20 30 23 30 3 0 14 -13 23 -30
15 -24 25 -30 53 -30 l35 0 -36 46 c-19 26 -35 51 -35 57 0 5 16 30 36 53 l35
44 -35 0 c-29 0 -38 -5 -51 -30 -9 -16 -19 -30 -24 -30 -5 0 -14 14 -21 30
-10 25 -18 30 -47 30 -25 0 -32 -4 -27 -12z"/>
</g>
</svg>
